<svg xmlns="http://www.w3.org/2000/svg" viewBox="0 0 120 120">
  <rect width="120" height="120" rx="24" fill="#000"/>
  <g fill="none" stroke="#fff" stroke-width="8.5" stroke-linecap="round" stroke-linejoin="round">
    <path d="M60 18 C76 17 89 27 93 42 C96 54 90 67 78 75 L62 85"/>
    <path d="M60 18 C76 17 89 27 93 42 C96 54 90 67 78 75 L62 85" transform="rotate(58 60 60) translate(1 -1)"/>
    <path d="M60 18 C76 17 89 27 93 42 C96 54 90 67 78 75 L62 85" transform="rotate(121 60 60) translate(-1 1)"/>
    <path d="M60 18 C76 17 89 27 93 42 C96 54 90 67 78 75 L62 85" transform="rotate(178 60 60) translate(0 2)"/>
    <path d="M60 18 C76 17 89 27 93 42 C96 54 90 67 78 75 L62 85" transform="rotate(242 60 60) translate(-2 -1)"/>
    <path d="M60 18 C76 17 89 27 93 42 C96 54 90 67 78 75 L62 85" transform="rotate(304 60 60) translate(2 0)"/>
    <path d="M60 40 78 50 78 70 60 80 42 70 42 50 Z" stroke-width="6"/>
    <path d="M78 25 83 20 M88 31 95 29" stroke-width="3"/>
  </g>
</svg>
